# xmcd
#
# Track frame offsets: 
#        150
#        14102
#        28352
#        42175
#        56225
#        69850
#        83157
#        97790
#        110080
#        121552
#        134990
#        148030
#        160520
#        175480
#        188240
#        201740
#        215992
#        231470
#        246327
#        249082
#        259977
#        267417
#        277940
#        284195
#        295810
#        299232
#        312932
#        317900
#
# Disc length: 4364 seconds
#
# Revision: 0
# Processed by: cddbd v1.5.1PL0 Copyright (c) Steve Scherf et al.
# Submitted via: ExactAudioCopy v0.95a4
#
DISCID=d4110a1c
DTITLE=Various Artist - Memories Of Jimmie Rodgers
DYEAR=1900
DGENRE=Country
TTITLE0=Dwight Butcher - When Jimmie Rodgers Said Goodbye
TTITLE1=Gene Autry - The Life Of Jimmie Rodgers
TTITLE2=Gene Autry - The Death Of Jimmie Rodgers
TTITLE3=Gene Autry - Good Luck Old Pal ('Til We Meet Bye And Bye)
TTITLE4=Gene Autry - When Jimmie Rodgers Said Goodbye
TTITLE5=W. Lee O'Daniel - Memories Of Jimmy Rodgers
TTITLE6=Bradley Kincaid - Jimmie Rodgers' Life
TTITLE7=Bradley Kincaid - The Death Of Jimmie Rodgers
TTITLE8=Bradley Kincaid - Mrs. Jimmie Rodgers' Lament
TTITLE9=Asher Sizemore and Little Jimmie - Little Jimmie's Goodbye To Ji
TTITLE9=mmie Rodgers
TTITLE10=Kenneth Houchins - When Jimmie Rodgers Said Goodbye
TTITLE11=Kenneth Houchins - Good Luck Old Pal
TTITLE12=Bradley Kincaid - The Life Of Jimmie Rodgers
TTITLE13=Bradley Kincaid - The Death Of Jimmie Rodgers
TTITLE14=Ernest Tubb - The Last Thoughts Of Jimmie Rodgers
TTITLE15=Ernest Tubb - The Passing Of Jimmie Rodgers
TTITLE16=Mrs. Jimmie Rodgers - We Miss Him When The Evening Shadows Fa
TTITLE16=ll
TTITLE17=Mrs. Jimmie Rodgers - My Rainbow Trail Keeps Winding On
TTITLE18=Ernest Tubb - Introduction
TTITLE19=Ernest Tubb - The Women Made A Fool Out Of Me
TTITLE20=Wilburn Brothers - Introduction
TTITLE21=Wilburn Brothers - Nothing At All
TTITLE22=Ernest Tubb and The Wilburn Brothers - Introduction
TTITLE23=Ernest Tubb and The Wilburn Brothers - Mr. Love 
TTITLE24=Hank Snow - Introduction
TTITLE25=Hank Snow - Anniversary Blue Yodel
TTITLE26=Jim Reeves - Introduction
TTITLE27=Jim Reeves - Waitin' For A Train
EXTD=
EXTT0=
EXTT1=
EXTT2=
EXTT3=
EXTT4=
EXTT5=
EXTT6=
EXTT7=
EXTT8=
EXTT9=
EXTT10=
EXTT11=
EXTT12=
EXTT13=
EXTT14=
EXTT15=
EXTT16=
EXTT17=
EXTT18=
EXTT19=
EXTT20=
EXTT21=
EXTT22=
EXTT23=
EXTT24=
EXTT25=
EXTT26=
EXTT27=
PLAYORDER=
